<svg width="32" height="32" viewBox="0 0 32 32" fill="none" xmlns="http://www.w3.org/2000/svg">
<path d="M23.0625 12.7828V13.6892C23.0625 14.6903 22.223 15.502 21.1875 15.502H11.8125C10.777 15.502 9.9375 14.6903 9.9375 13.6892V12.7828" stroke="black" stroke-width="0.8" stroke-miterlimit="10" stroke-linecap="round" stroke-linejoin="round"/>
<path d="M9.9375 19.1276V31.0312H23.0625V19.1276C23.0625 18.1264 22.223 17.3148 21.1875 17.3148H11.8125C10.777 17.3148 9.9375 18.1264 9.9375 19.1276Z" stroke="black" stroke-width="0.8" stroke-miterlimit="10" stroke-linecap="round" stroke-linejoin="round"/>
<path d="M11.8125 19.1278H21.1875V27.2852H11.8125V19.1278Z" stroke="black" stroke-width="0.8" stroke-miterlimit="10" stroke-linecap="round" stroke-linejoin="round"/>
<path d="M23.0624 5.53149V10.9697" stroke="black" stroke-width="0.8" stroke-miterlimit="10" stroke-linecap="round" stroke-linejoin="round"/>
<path d="M9.9375 3.71875V2.81238C9.9375 1.81126 10.777 0.999631 11.8125 0.999631H21.1875C22.223 0.999631 23.0625 1.81126 23.0625 2.81238V3.71875" stroke="black" stroke-width="0.8" stroke-miterlimit="10" stroke-linecap="round" stroke-linejoin="round"/>
<path d="M23.0625 5.53223H9.9375C9.41975 5.53223 9 5.12641 9 4.62585C9 4.12529 9.41975 3.71948 9.9375 3.71948H23.0625C23.5802 3.71948 24 4.12529 24 4.62585C24 5.12641 23.5802 5.53223 23.0625 5.53223Z" stroke="black" stroke-width="0.8" stroke-miterlimit="10" stroke-linecap="round" stroke-linejoin="round"/>
<path d="M11.8125 10.9705H23.0625C23.5802 10.9705 24 11.3763 24 11.8768C24 12.3774 23.5802 12.7832 23.0625 12.7832H9.9375C9.41975 12.7832 9 12.3774 9 11.8768C9 11.3763 9.41975 10.9705 9.9375 10.9705V5.53222" stroke="black" stroke-width="0.8" stroke-miterlimit="10" stroke-linecap="round" stroke-linejoin="round"/>
<path d="M17.4374 20.9399V23.6591C17.4374 24.1596 17.8572 24.5654 18.3749 24.5654C18.8927 24.5654 19.3124 24.1596 19.3124 23.6591V20.9399H17.4374Z" stroke="black" stroke-width="0.8" stroke-miterlimit="10" stroke-linecap="round" stroke-linejoin="round"/>
<path d="M13.6874 20.9399V23.6591C13.6874 24.1596 14.1072 24.5654 14.6249 24.5654C15.1427 24.5654 15.5624 24.1596 15.5624 23.6591V20.9399H13.6874Z" stroke="black" stroke-width="0.8" stroke-miterlimit="10" stroke-linecap="round" stroke-linejoin="round"/>
<path d="M11.8125 17.3145V15.5017" stroke="black" stroke-width="0.8" stroke-miterlimit="10" stroke-linecap="round" stroke-linejoin="round"/>
<path d="M21.1874 17.3145V15.5017" stroke="black" stroke-width="0.8" stroke-miterlimit="10" stroke-linecap="round" stroke-linejoin="round"/>
</svg>
