<svg width="35" height="35" viewBox="0 0 35 35" fill="none" xmlns="http://www.w3.org/2000/svg">
<g clip-path="url(#clip0_42_2)">
<path d="M7.21739 4.6543H27.7827C27.8915 4.6543 27.9958 4.6975 28.0727 4.77441C28.1496 4.85131 28.1928 4.95561 28.1928 5.06437V20.1552C28.1928 20.2639 28.1496 20.3682 28.0727 20.4451C27.9958 20.522 27.8915 20.5653 27.7827 20.5653H7.21739C7.10863 20.5653 7.00433 20.522 6.92742 20.4451C6.85052 20.3682 6.80731 20.2639 6.80731 20.1552V5.06437C6.80731 4.95561 6.85052 4.85131 6.92742 4.77441C7.00433 4.6975 7.10863 4.6543 7.21739 4.6543ZM27.3726 5.47445H7.62746V19.7451H27.3726V5.47445Z" fill="black"/>
<path d="M5.02346 3.03418H29.9561C30.6532 3.03418 31.0838 3.58778 31.0838 4.26441C31.0838 4.92053 30.6737 5.47413 29.9561 5.47413H5.02346C4.34684 5.47413 3.89575 4.92053 3.89575 4.2439C3.89575 3.60829 4.32633 3.05468 5.02346 3.05468V3.03418ZM29.9561 3.85433H5.02346C4.77742 3.85433 4.7159 4.05937 4.7159 4.26441C4.7159 4.46945 4.77742 4.65398 5.02346 4.65398H29.9561C30.2226 4.65398 30.2636 4.44894 30.2636 4.2439C30.2636 4.03887 30.2021 3.85433 29.9561 3.85433ZM5.02346 19.7448H29.9561C30.5712 19.7448 31.0838 20.2574 31.0838 20.8725V21.057C31.0838 21.6721 30.5712 22.1847 29.9561 22.1847H5.02346C4.72437 22.1847 4.43754 22.0659 4.22605 21.8544C4.01456 21.6429 3.89575 21.3561 3.89575 21.057V20.852C3.89575 20.2369 4.40835 19.7448 5.02346 19.7448ZM29.9561 20.5649H5.02346C4.94189 20.5649 4.86366 20.5973 4.80599 20.655C4.74831 20.7127 4.7159 20.7909 4.7159 20.8725V21.057C4.7159 21.2211 4.85943 21.3646 5.02346 21.3646H29.9561C30.0377 21.3646 30.1159 21.3322 30.1736 21.2745C30.2312 21.2168 30.2636 21.1386 30.2636 21.057V20.852C30.2584 20.774 30.2237 20.701 30.1666 20.6476C30.1095 20.5943 30.0342 20.5648 29.9561 20.5649Z" fill="black"/>
<path d="M17.4898 0C18.9251 0 20.0938 1.16872 20.0938 2.58348V3.44464C20.0938 3.5534 20.0506 3.6577 19.9737 3.73461C19.8968 3.81151 19.7925 3.85472 19.6837 3.85472H15.3164C15.2076 3.85472 15.1033 3.81151 15.0264 3.73461C14.9495 3.6577 14.9063 3.5534 14.9063 3.44464V2.58348C14.9063 1.14821 16.075 0 17.4898 0ZM17.4898 0.820152C17.0221 0.820152 16.5736 1.00593 16.2429 1.33662C15.9122 1.66731 15.7265 2.11582 15.7265 2.58348V3.03456H19.2736V2.58348C19.2736 2.35018 19.2274 2.1192 19.1375 1.90391C19.0476 1.68863 18.9158 1.49332 18.7499 1.32931C18.584 1.1653 18.3872 1.03585 18.1709 0.948447C17.9546 0.861046 17.7231 0.817439 17.4898 0.820152ZM16.3211 9.22671L12.6304 15.5829L12.6099 16.7516L13.5941 16.1365L17.2847 9.75981L16.3006 9.20621L16.3211 9.22671ZM15.8085 8.46807C15.8303 8.4149 15.8631 8.36691 15.9047 8.32723C15.9463 8.28754 15.9957 8.25704 16.0499 8.23771C16.104 8.21837 16.1616 8.21064 16.2189 8.215C16.2762 8.21936 16.332 8.23573 16.3826 8.26303L18.0024 9.22671C18.0597 9.2496 18.1112 9.28514 18.1528 9.33069C18.1945 9.37623 18.2254 9.43059 18.2431 9.48973C18.2609 9.54886 18.265 9.61124 18.2553 9.67221C18.2456 9.73317 18.2222 9.79115 18.1869 9.84183L14.2707 16.6081C14.2363 16.685 14.179 16.7494 14.1067 16.7926L12.4048 17.8383C12.3528 17.8731 12.2936 17.8956 12.2315 17.904C12.1695 17.9123 12.1064 17.9064 12.047 17.8866C11.9876 17.8668 11.9336 17.8337 11.889 17.7898C11.8444 17.7459 11.8104 17.6923 11.7897 17.6333C11.7487 17.5513 11.7692 17.4487 11.7692 17.3257L11.8307 15.4804C11.8307 15.4189 11.8307 15.3368 11.8922 15.2753L15.788 8.46807H15.8085Z" fill="black"/>
<path d="M18.3304 7.93529L17.3873 7.40219L16.7311 8.50939L17.6743 9.02199L18.3304 7.93529ZM18.843 7.29967C18.9907 7.38587 19.1015 7.52331 19.1544 7.68586C19.2073 7.84841 19.1987 8.02474 19.1301 8.18133L19.0276 8.40687L18.2074 9.80113C18.1817 9.85081 18.1462 9.89471 18.1029 9.93014C18.0596 9.96556 18.0096 9.99176 17.9558 10.0071C17.902 10.0225 17.8457 10.0267 17.7902 10.0195C17.7348 10.0123 17.6814 9.99378 17.6333 9.96516C17.08 9.64352 16.5263 9.3223 15.9725 9.00148C15.6855 8.85796 15.7675 8.61191 15.8905 8.34536L16.7311 6.86909C16.825 6.71297 16.9763 6.59981 17.1526 6.55383C17.3289 6.50784 17.5161 6.53269 17.6743 6.62304L18.843 7.29967ZM13.6966 16.7724C13.7872 16.8071 13.8871 16.8085 13.9786 16.7764C14.0701 16.7443 14.1473 16.6809 14.1965 16.5973C14.2456 16.5137 14.2636 16.4154 14.2471 16.3199C14.2307 16.2243 14.1809 16.1376 14.1067 16.0753L12.4664 15.1116C12.3712 15.0572 12.2583 15.0429 12.1526 15.0717C12.0468 15.1006 11.9569 15.1702 11.9025 15.2654C11.8481 15.3606 11.8338 15.4734 11.8626 15.5792C11.8915 15.6849 11.9611 15.7749 12.0563 15.8293L13.6966 16.7724ZM12.1793 17.1005C12.0705 17.1005 11.9662 17.1437 11.8893 17.2206C11.8124 17.2975 11.7692 17.4018 11.7692 17.5106C11.7692 17.6193 11.8124 17.7236 11.8893 17.8005C11.9662 17.8774 12.0705 17.9206 12.1793 17.9206H22.8413C22.95 17.9206 23.0543 17.8774 23.1312 17.8005C23.2082 17.7236 23.2514 17.6193 23.2514 17.5106C23.2514 17.4018 23.2082 17.2975 23.1312 17.2206C23.0543 17.1437 22.95 17.1005 22.8413 17.1005H12.1793ZM17.8999 21.7754C17.8999 21.6666 17.8567 21.5623 17.7798 21.4854C17.7029 21.4085 17.5985 21.3653 17.4898 21.3653C17.381 21.3653 17.2767 21.4085 17.1998 21.4854C17.1229 21.5623 17.0797 21.6666 17.0797 21.7754V34.5902C17.0797 34.699 17.1229 34.8033 17.1998 34.8802C17.2767 34.9571 17.381 35.0003 17.4898 35.0003C17.5985 35.0003 17.7029 34.9571 17.7798 34.8802C17.8567 34.8033 17.8999 34.699 17.8999 34.5902V21.7754Z" fill="black"/>
<path d="M26.2654 31.1251C26.3443 31.2012 26.4501 31.2429 26.5597 31.241C26.6693 31.2391 26.7737 31.1937 26.8498 31.1149C26.9259 31.036 26.9676 30.9301 26.9657 30.8205C26.9638 30.711 26.9184 30.6066 26.8395 30.5305L17.7769 21.4678C17.7002 21.3927 17.5971 21.3506 17.4898 21.3506C17.3825 21.3506 17.2794 21.3927 17.2028 21.4678L8.14007 30.5305C8.06122 30.6066 8.01584 30.711 8.01392 30.8205C8.012 30.9301 8.05369 31.036 8.12982 31.1149C8.20595 31.1937 8.31028 31.2391 8.41987 31.241C8.52946 31.2429 8.63533 31.2012 8.71418 31.1251L17.4898 22.3495L26.2654 31.1251Z" fill="black"/>
</g>
<defs>
<clipPath id="clip0_42_2">
<rect width="35" height="35" fill="white"/>
</clipPath>
</defs>
</svg>
