<svg width="630" height="630" viewBox="0 0 630 630" fill="none" xmlns="http://www.w3.org/2000/svg">
<g clip-path="url(#clip0_15_51)">
<path fill-rule="evenodd" clip-rule="evenodd" d="M315 0.393555C137.754 0.393555 0.38916 130.226 0.38916 305.572C0.38916 397.297 37.9905 476.551 99.2036 531.307C104.331 535.928 107.433 542.322 107.686 549.222L109.395 605.181C109.965 623.032 128.386 634.616 144.718 627.463L207.133 599.927C212.451 597.584 218.338 597.141 223.908 598.661C252.584 606.573 283.159 610.751 315 610.751C492.246 610.751 629.611 480.919 629.611 305.572C629.611 130.226 492.246 0.393555 315 0.393555Z" fill="url(#paint0_linear_15_51)"/>
<path fill-rule="evenodd" clip-rule="evenodd" d="M126.107 394.828L218.528 248.221C233.214 224.926 264.738 219.102 286.767 235.624L360.261 290.76C367.034 295.824 376.276 295.761 382.986 290.696L482.244 215.367C495.474 205.302 512.819 221.191 503.893 235.244L411.536 381.788C396.85 405.083 365.325 410.907 343.296 394.385L269.802 339.249C263.029 334.185 253.787 334.248 247.077 339.312L147.756 414.705C134.526 424.77 117.181 408.881 126.107 394.828Z" fill="white"/>
</g>
<defs>
<linearGradient id="paint0_linear_15_51" x1="315" y1="0.393555" x2="315" y2="629.615" gradientUnits="userSpaceOnUse">
<stop stop-color="#00B2FF"/>
<stop offset="1" stop-color="#006AFF"/>
</linearGradient>
<clipPath id="clip0_15_51">
<rect width="630" height="630" fill="white"/>
</clipPath>
</defs>
</svg>
