<svg width="32" height="32" viewBox="0 0 32 32" fill="none" xmlns="http://www.w3.org/2000/svg">
<path d="M6.90856 0.468533C6.73012 0.468533 6.55713 0.529992 6.4187 0.642569C6.28026 0.755145 6.18482 0.91197 6.14844 1.08666L5.64587 3.49902H8.17124L7.66868 1.08666C7.63229 0.911975 7.53685 0.755158 7.39841 0.642583C7.25997 0.530008 7.08699 0.468545 6.90856 0.468533Z" stroke="black" stroke-width="0.8" stroke-miterlimit="10" stroke-linecap="round" stroke-linejoin="round"/>
<path d="M5.01447 5.51953V4.13054C5.01447 3.78185 5.29709 3.49922 5.64584 3.49922H8.17121C8.51989 3.49922 8.80252 3.78185 8.80252 4.13054V5.51953" stroke="black" stroke-width="0.8" stroke-miterlimit="10" stroke-linecap="round" stroke-linejoin="round"/>
<path d="M3.75189 15.8353V27.6172H10.065V8.67662C10.065 8.32787 9.7825 8.04531 9.43375 8.04531H4.38314C4.03439 8.04531 3.75189 8.32787 3.75189 8.67662V13.6479" stroke="black" stroke-width="0.8" stroke-miterlimit="10" stroke-linecap="round" stroke-linejoin="round"/>
<path d="M10.0653 27.6169V30.2686C10.0653 30.9659 9.49994 31.5312 8.80251 31.5312H5.01445C4.31708 31.5312 3.75171 30.9659 3.75171 30.2686V27.6169" stroke="black" stroke-width="0.8" stroke-miterlimit="10" stroke-linecap="round" stroke-linejoin="round"/>
<path d="M4.38312 8.04492V6.15086C4.38312 5.80218 4.6658 5.51955 5.01449 5.51955H8.80254C9.15129 5.51955 9.43392 5.80218 9.43392 6.15086V8.04492" stroke="black" stroke-width="0.8" stroke-miterlimit="10" stroke-linecap="round" stroke-linejoin="round"/>
<path d="M25.0914 0.468533C24.9129 0.468545 24.7399 0.530008 24.6015 0.642583C24.4631 0.755158 24.3676 0.911975 24.3312 1.08666L23.8287 3.49902H26.354L25.8515 1.08666C25.8151 0.91197 25.7197 0.755145 25.5812 0.642569C25.4428 0.529992 25.2698 0.468533 25.0914 0.468533Z" stroke="black" stroke-width="0.8" stroke-miterlimit="10" stroke-linecap="round" stroke-linejoin="round"/>
<path d="M23.1974 5.51953V4.13054C23.1974 3.78185 23.48 3.49922 23.8288 3.49922H26.3541C26.7028 3.49922 26.9854 3.78185 26.9854 4.13054V5.51953" stroke="black" stroke-width="0.8" stroke-miterlimit="10" stroke-linecap="round" stroke-linejoin="round"/>
<path d="M28.248 12.6041V27.6172H21.9349V8.67662C21.9349 8.32787 22.2174 8.04537 22.5662 8.04537H27.6168C27.9655 8.04537 28.248 8.32787 28.248 8.67662V10.4166" stroke="black" stroke-width="0.8" stroke-miterlimit="10" stroke-linecap="round" stroke-linejoin="round"/>
<path d="M28.2482 27.6169V30.2686C28.2482 30.9659 27.6829 31.5312 26.9854 31.5312H23.1974C22.5 31.5312 21.9346 30.9659 21.9346 30.2686V27.6169" stroke="black" stroke-width="0.8" stroke-miterlimit="10" stroke-linecap="round" stroke-linejoin="round"/>
<path d="M22.566 8.04492V6.15086C22.566 5.80218 22.8486 5.51955 23.1974 5.51955H26.9854C27.3341 5.51955 27.6168 5.80218 27.6168 6.15086V8.04492" stroke="black" stroke-width="0.8" stroke-miterlimit="10" stroke-linecap="round" stroke-linejoin="round"/>
<path d="M15.9999 0.468533C15.8215 0.468545 15.6485 0.530008 15.5101 0.642583C15.3716 0.755158 15.2762 0.911975 15.2398 1.08666L14.7372 3.49902H17.2626L16.7601 1.08666C16.7237 0.911975 16.6282 0.755158 16.4898 0.642583C16.3513 0.530008 16.1784 0.468545 15.9999 0.468533Z" stroke="black" stroke-width="0.8" stroke-miterlimit="10" stroke-linecap="round" stroke-linejoin="round"/>
<path d="M14.1059 5.51953V4.13054C14.1059 3.78185 14.3885 3.49922 14.7373 3.49922H17.2626C17.6113 3.49922 17.8939 3.78185 17.8939 4.13054V5.51953" stroke="black" stroke-width="0.8" stroke-miterlimit="10" stroke-linecap="round" stroke-linejoin="round"/>
<path d="M19.1568 18.1878V27.6172H12.8431V8.67662C12.8431 8.32787 13.1256 8.04537 13.4743 8.04537H18.5256C18.8743 8.04537 19.1568 8.32787 19.1568 8.67662V16.0003" stroke="black" stroke-width="0.8" stroke-miterlimit="10" stroke-linecap="round" stroke-linejoin="round"/>
<path d="M19.1567 27.6169V30.2686C19.1567 30.9659 18.5914 31.5312 17.8939 31.5312H14.1059C13.4085 31.5312 12.8431 30.9659 12.8431 30.2686V27.6169" stroke="black" stroke-width="0.8" stroke-miterlimit="10" stroke-linecap="round" stroke-linejoin="round"/>
<path d="M13.4745 8.04492V6.15086C13.4745 5.80218 13.7572 5.51955 14.1059 5.51955H17.894C18.2427 5.51955 18.5253 5.80218 18.5253 6.15086V8.04492" stroke="black" stroke-width="0.8" stroke-miterlimit="10" stroke-linecap="round" stroke-linejoin="round"/>
</svg>
