<svg width="512" height="512" viewBox="0 0 512 512" fill="none" xmlns="http://www.w3.org/2000/svg">
<g clip-path="url(#clip0_28_2)">
<path d="M491.375 157.662C478.225 127.365 459.519 99.965 435.777 76.223C412.035 52.481 384.635 33.775 354.338 20.625C322.809 6.939 289.723 0 256 0C222.277 0 189.191 6.939 157.662 20.625C127.365 33.775 99.965 52.481 76.223 76.223C52.481 99.965 33.775 127.365 20.625 157.662C6.939 189.191 0 222.277 0 256C0 289.723 6.939 322.809 20.625 354.338C33.774 384.635 52.48 412.035 76.223 435.777C99.965 459.519 127.365 478.225 157.662 491.375C189.191 505.061 222.277 512 256 512C289.723 512 322.809 505.061 354.338 491.375C384.635 478.225 412.035 459.519 435.777 435.777C459.519 412.035 478.225 384.635 491.375 354.338C505.061 322.809 512 289.723 512 256C512 222.277 505.061 189.191 491.375 157.662ZM256 492C128.075 492 20 383.925 20 256C20 128.075 128.075 20 256 20C383.925 20 492 128.075 492 256C492 383.925 383.925 492 256 492Z" fill="#5BCEC1"/>
<path d="M451.975 173.804C441.105 148.548 425.612 125.76 405.926 106.075C386.24 86.389 363.453 70.896 338.197 60.026C311.948 48.728 284.293 43 256 43C217.538 43 177.445 56.134 140.055 80.981C135.455 84.038 134.204 90.245 137.261 94.844C140.318 99.444 146.525 100.694 151.124 97.638C185.224 74.978 221.489 63 256 63C360.617 63 449 151.383 449 256C449 360.617 360.617 449 256 449C151.383 449 63 360.617 63 256C63 221.496 74.975 185.229 97.629 151.123C100.685 146.522 99.433 140.316 94.833 137.26C90.231 134.204 84.026 135.457 80.97 140.057C56.13 177.454 43 217.546 43 256C43 284.293 48.728 311.948 60.025 338.196C70.895 363.452 86.388 386.24 106.074 405.925C125.76 425.612 148.547 441.104 173.804 451.975C200.052 463.272 227.707 469 256 469C284.293 469 311.948 463.272 338.196 451.975C363.452 441.105 386.24 425.612 405.925 405.926C425.611 386.24 441.104 363.453 451.974 338.197C463.272 311.948 469 284.293 469 256C469 227.707 463.272 200.052 451.975 173.804Z" fill="#5BCEC1"/>
<path d="M115 105C109.48 105 105 109.48 105 115C105 120.52 109.48 125 115 125C120.52 125 125 120.52 125 115C125 109.48 120.52 105 115 105ZM374.281 177.719C366.724 170.162 356.681 166 346 166C335.319 166 325.276 170.162 317.719 177.719L226 269.438L194.281 237.719C186.724 230.162 176.681 226 166 226C155.319 226 145.276 230.162 137.722 237.716C130.163 245.269 126 255.313 126 266C126 276.687 130.163 286.731 137.719 294.281L197.719 354.281C205.276 361.838 215.32 366 226 366C236.68 366 246.724 361.838 254.281 354.281L374.278 234.284C381.837 226.731 386 216.687 386 206C386 195.313 381.837 185.269 374.281 177.719ZM360.139 220.139L240.139 340.139C236.359 343.918 231.338 346 226 346C220.662 346 215.641 343.918 211.861 340.139L151.858 280.136C148.081 276.361 146 271.341 146 266C146 260.659 148.081 255.639 151.861 251.861C155.641 248.082 160.662 246 166 246C171.338 246 176.359 248.082 180.139 251.861L226 297.722L331.861 191.861C335.641 188.082 340.662 186 346 186C351.338 186 356.359 188.082 360.142 191.864C363.919 195.639 366 200.659 366 206C366 211.341 363.919 216.361 360.139 220.139Z" fill="#5BCEC1"/>
</g>
<defs>
<clipPath id="clip0_28_2">
<rect width="512" height="512" fill="white"/>
</clipPath>
</defs>
</svg>
