<svg width="32" height="32" viewBox="0 0 32 32" fill="none" xmlns="http://www.w3.org/2000/svg">
<path d="M26.9333 0H5.6C4.7164 0 4 0.7164 4 1.6V30.4C4 31.2836 4.7164 32 5.6 32H26.9333C27.8169 32 28.5333 31.2836 28.5333 30.4V1.6C28.5333 0.7164 27.8169 0 26.9333 0ZM27.4667 30.4C27.4667 30.5415 27.4105 30.6771 27.3105 30.7771C27.2104 30.8771 27.0748 30.9333 26.9333 30.9333H5.6C5.45855 30.9333 5.3229 30.8771 5.22288 30.7771C5.12286 30.6771 5.06667 30.5415 5.06667 30.4V1.6C5.06667 1.45855 5.12286 1.3229 5.22288 1.22288C5.3229 1.12286 5.45855 1.06667 5.6 1.06667H26.9333C27.0748 1.06667 27.2104 1.12286 27.3105 1.22288C27.4105 1.3229 27.4667 1.45855 27.4667 1.6V30.4Z" fill="black"/>
<path d="M25.8667 2.13379H6.6667C6.52525 2.13379 6.38959 2.18998 6.28957 2.29C6.18955 2.39002 6.13336 2.52567 6.13336 2.66712V29.3338C6.13336 29.4752 6.18955 29.6109 6.28957 29.7109C6.38959 29.8109 6.52525 29.8671 6.6667 29.8671H25.8667C26.0081 29.8671 26.1438 29.8109 26.2438 29.7109C26.3438 29.6109 26.4 29.4752 26.4 29.3338V2.66712C26.4 2.52567 26.3438 2.39002 26.2438 2.29C26.1438 2.18998 26.0081 2.13379 25.8667 2.13379ZM25.3334 28.8005H7.20003V3.20046H25.3334V28.8005Z" fill="black"/>
<path d="M8.78068 9.24248C8.92214 9.24246 9.0578 9.18625 9.15782 9.08622L12.9297 5.31435C12.9978 5.24862 13.0471 5.16595 13.0727 5.07483C13.0982 4.9837 13.099 4.88742 13.075 4.79588C13.0511 4.70425 13.0032 4.62064 12.9362 4.55367C12.8693 4.4867 12.7857 4.4388 12.694 4.41488C12.6025 4.39088 12.5062 4.39169 12.4151 4.41724C12.3239 4.44278 12.2413 4.49213 12.1755 4.56022L8.40368 8.33208C8.32919 8.40667 8.27848 8.50167 8.25795 8.60507C8.23742 8.70846 8.248 8.81563 8.28835 8.91302C8.32858 9.01051 8.39686 9.09387 8.48452 9.15252C8.57218 9.21118 8.67521 9.24249 8.78068 9.24248ZM19.6037 27.753C19.7037 27.8529 19.8393 27.909 19.9807 27.909C20.1221 27.909 20.2578 27.8529 20.3578 27.753L24.1297 23.9809C24.2268 23.8804 24.2806 23.7456 24.2794 23.6058C24.2782 23.466 24.2221 23.3322 24.1232 23.2333C24.0243 23.1344 23.8905 23.0783 23.7507 23.0771C23.6109 23.0759 23.4761 23.1297 23.3755 23.2268L19.6037 26.9987C19.5038 27.0988 19.4476 27.2344 19.4476 27.3758C19.4476 27.5172 19.5038 27.6528 19.6037 27.7529V27.753ZM10.5563 21.7107C10.6563 21.8106 10.7919 21.8667 10.9333 21.8667C11.0747 21.8667 11.2104 21.8106 11.3104 21.7107L21.9771 11.044C22.0742 10.9434 22.128 10.8087 22.1268 10.6689C22.1256 10.529 22.0695 10.3953 21.9706 10.2964C21.8717 10.1975 21.7379 10.1414 21.5981 10.1402C21.4583 10.139 21.3235 10.1927 21.2229 10.2899L10.5563 20.9565C10.4564 21.0566 10.4002 21.1922 10.4002 21.3336C10.4002 21.475 10.4564 21.6106 10.5563 21.7107Z" fill="black"/>
</svg>
