<svg width="32" height="32" viewBox="0 0 32 32" fill="none" xmlns="http://www.w3.org/2000/svg">
<g clip-path="url(#clip0_42_74)">
<path d="M31.416 21.2225L26.416 13.7225C26.3703 13.6541 26.3084 13.598 26.2359 13.5592C26.1633 13.5204 26.0823 13.5 26 13.5H24.5C23.838 13.5 23.8385 14.5 24.5 14.5H25.7325L30.066 21H1.934L6.2675 14.5H7.5C8.162 14.5 8.1615 13.5 7.5 13.5H6C5.833 13.5 5.677 13.5835 5.584 13.7225L0.584 21.2225C0.566 21.273 0.5 21.39 0.5 21.5V31C0.5 31.1326 0.552678 31.2598 0.646447 31.3536C0.740215 31.4473 0.867392 31.5 1 31.5H31C31.1326 31.5 31.2598 31.4473 31.3536 31.3536C31.4473 31.2598 31.5 31.1326 31.5 31V21.5C31.5 21.3945 31.4345 21.2735 31.416 21.2225ZM30.5 30.5H1.5V22H30.5V30.5Z" fill="black"/>
<path d="M9.50152 16.5355C9.54802 17.1935 10.5465 17.125 10.4985 16.464C10.383 14.843 9.19702 12.2975 7.94252 9.602C6.98402 7.5435 5.99602 5.4215 5.60052 3.893C6.97352 3.575 7.75852 2.9435 8.40302 2.425C9.07152 1.888 9.55352 1.5 10.5 1.5C11.5585 1.5 12.2815 1.7285 13.0475 1.97C13.872 2.2305 14.725 2.5 16 2.5C17.276 2.5 18.1285 2.2305 18.9535 1.97C19.719 1.7285 20.4415 1.5 21.5 1.5C22.4465 1.5 22.9285 1.888 23.5965 2.4255C24.241 2.944 25.026 3.575 26.399 3.8935C26.0035 5.4225 25.0155 7.544 24.057 9.6025C22.802 12.298 21.6165 14.8435 21.501 16.4645C21.453 17.126 22.451 17.201 22.498 16.536C22.601 15.099 23.802 12.5195 24.9635 10.025C26.0545 7.682 27.1825 5.2595 27.4915 3.5915C27.5037 3.52574 27.5025 3.4582 27.4881 3.3929C27.4737 3.32759 27.4464 3.26583 27.4077 3.21129C27.369 3.15674 27.3197 3.11051 27.2628 3.07534C27.206 3.04016 27.1426 3.01675 27.0765 3.0065C25.6355 2.783 24.918 2.2055 24.2235 1.647C23.523 1.083 22.799 0.5 21.5 0.5C20.287 0.5 19.456 0.7625 18.6525 1.0165C17.865 1.265 17.1215 1.5 16 1.5C14.879 1.5 14.1355 1.265 13.348 1.0165C12.5445 0.7625 11.713 0.5 10.5 0.5C9.20102 0.5 8.47702 1.083 7.77652 1.646C7.08202 2.2045 6.36452 2.782 4.92352 3.0055C4.85743 3.01575 4.79407 3.03916 4.73719 3.07434C4.68032 3.10951 4.63107 3.15574 4.59238 3.21029C4.55368 3.26483 4.52632 3.32659 4.51192 3.3919C4.49751 3.4572 4.49636 3.52474 4.50852 3.5905C4.81752 5.2585 5.94552 7.6815 7.03652 10.024C8.19752 12.519 9.39852 15.0985 9.50152 16.5355Z" fill="black"/>
<path d="M7.48301 16.1967C6.48701 17.3557 7.12901 19.0002 8.50001 19.0002H23.5C24.9365 19.0002 25.5435 17.2147 24.414 16.0862C23.946 15.6182 23.2395 16.3257 23.707 16.7932C24.155 17.2412 24.0845 18.0002 23.5 18.0002H8.50001C7.95501 18.0002 7.84051 17.3152 8.24151 16.8477C8.67151 16.3467 7.91651 15.6947 7.48301 16.1967Z" fill="black"/>
<path d="M19.4985 16.0348C19.5495 15.3173 20.032 14.3228 20.5915 13.1713C21.272 11.7703 22.119 10.0268 22.4915 8.09385C22.6155 7.44435 21.6355 7.25535 21.509 7.90485C21.162 9.70835 20.381 11.3158 19.692 12.7343C19.0875 13.9788 18.5655 15.0538 18.5015 15.9638C18.4545 16.6263 19.4515 16.7008 19.4985 16.0348ZM12.48 8.85985C11.6765 6.10835 10.466 4.29635 10.4145 4.22035C10.0445 3.67385 9.21547 4.23035 9.58547 4.77935C9.59697 4.79685 10.7625 6.54685 11.52 9.14035C11.7065 9.77585 12.6645 9.49435 12.48 8.85985ZM13.994 15.9228C13.742 14.3113 13.492 13.4038 13.482 13.3658C13.3055 12.7293 12.3415 12.9958 12.518 13.6338C12.5205 13.6428 12.764 14.5298 13.006 16.0773C13.1095 16.7408 14.095 16.5718 13.994 15.9228Z" fill="black"/>
</g>
<defs>
<clipPath id="clip0_42_74">
<rect width="32" height="32" fill="white"/>
</clipPath>
</defs>
</svg>
