<svg width="630" height="630" viewBox="0 0 630 630" fill="none" xmlns="http://www.w3.org/2000/svg">
<g clip-path="url(#clip0_15_57)">
<path d="M630.287 497.2C630.287 505.255 628.795 515.771 625.812 528.748C622.828 541.725 619.696 551.942 616.414 559.4C610.15 574.317 591.952 590.128 561.821 606.834C533.779 622.048 506.035 629.656 478.589 629.656C470.534 629.656 462.703 629.134 455.096 628.09C447.488 627.045 438.912 625.181 429.365 622.496C419.819 619.811 412.734 617.648 408.11 616.007C403.486 614.367 395.207 611.309 383.274 606.834C371.341 602.359 364.032 599.674 361.347 598.779C332.112 588.338 306.008 575.957 283.037 561.638C244.852 538.07 205.398 505.926 164.677 465.205C123.956 424.483 91.8116 385.03 68.244 346.845C53.9244 323.874 41.544 297.77 31.1026 268.534C30.2076 265.85 27.5227 258.541 23.0479 246.608C18.573 234.675 15.5152 226.396 13.8744 221.772C12.2336 217.148 10.0708 210.063 7.38585 200.517C4.70094 190.97 2.83641 182.393 1.79228 174.786C0.748141 167.179 0.226074 159.348 0.226074 151.293C0.226074 123.847 7.83334 96.1031 23.0479 68.0607C39.754 37.9299 55.5652 19.7322 70.4814 13.4674C77.9395 10.1858 88.1571 7.05339 101.134 4.07015C114.111 1.08691 124.627 -0.404713 132.682 -0.404713C136.859 -0.404713 139.991 0.0427735 142.079 0.937746C147.449 2.72769 155.355 14.064 165.796 34.9467C169.078 40.6148 173.552 48.6696 179.221 59.1109C184.889 69.5523 190.109 79.0241 194.883 87.5263C199.656 96.0285 204.28 104.009 208.755 111.467C209.65 112.66 212.26 116.389 216.586 122.654C220.911 128.919 224.118 134.214 226.207 138.54C228.295 142.865 229.339 147.117 229.339 151.293C229.339 157.26 225.088 164.718 216.586 173.667C208.083 182.617 198.835 190.821 188.841 198.279C178.848 205.737 169.6 213.643 161.097 221.996C152.595 230.349 148.344 237.21 148.344 242.58C148.344 245.265 149.09 248.621 150.581 252.649C152.073 256.676 153.341 259.734 154.385 261.822C155.429 263.91 157.517 267.49 160.65 272.562C163.782 277.633 165.498 280.467 165.796 281.064C188.469 321.934 214.423 356.988 243.659 386.223C272.894 415.459 307.947 441.413 348.818 464.086C349.414 464.384 352.248 466.1 357.32 469.232C362.392 472.364 365.971 474.453 368.06 475.497C370.148 476.541 373.206 477.809 377.233 479.3C381.261 480.792 384.617 481.538 387.302 481.538C392.671 481.538 399.533 477.287 407.886 468.784C416.239 460.282 424.145 451.034 431.603 441.04C439.061 431.046 447.265 421.798 456.214 413.296C465.164 404.794 472.622 400.543 478.589 400.543C482.765 400.543 487.016 401.587 491.342 403.675C495.668 405.764 500.963 408.971 507.228 413.296C513.493 417.622 517.222 420.232 518.415 421.127C525.873 425.602 533.853 430.226 542.356 434.999C550.858 439.772 560.33 444.993 570.771 450.661C581.212 456.329 589.267 460.804 594.935 464.086C615.818 474.527 627.154 482.433 628.944 487.803C629.839 489.891 630.287 493.023 630.287 497.2Z" fill="black"/>
</g>
<defs>
<clipPath id="clip0_15_57">
<rect width="630" height="630" fill="white"/>
</clipPath>
</defs>
</svg>
