<svg width="32" height="32" viewBox="0 0 32 32" fill="none" xmlns="http://www.w3.org/2000/svg">
<path d="M32 4.7185C32 1.65381 23.7564 0 16 0C12.6455 0 9.44363 0.286375 6.74025 0.828125C6.48631 0.878938 6.322 1.126 6.37275 1.37987C6.4235 1.63375 6.67062 1.79863 6.92456 1.74731C12.7874 0.572313 21.3074 0.646687 26.8584 2.1655C28.8909 2.72169 31.0625 3.68438 31.0625 4.7185C31.0625 7.79856 15.0486 9.98219 5.14162 7.2715C3.10912 6.71531 0.9375 5.75269 0.9375 4.7185C0.9375 3.70413 3.04419 2.75269 5.01562 2.20044C5.1332 2.16504 5.23219 2.08493 5.29134 1.97733C5.35049 1.86972 5.36506 1.74321 5.33194 1.62498C5.29881 1.50675 5.22063 1.40622 5.11419 1.34501C5.00774 1.2838 4.88154 1.26679 4.76269 1.29762C1.647 2.17044 0 3.35325 0 4.7185V6.59375C0 9.46563 7.26562 11.1145 14.5938 11.2954V19.9453C14.5938 20.2041 14.8034 20.4141 15.0625 20.4141C15.3216 20.4141 15.5312 20.2041 15.5312 19.9453V11.3106C15.8316 11.313 16.1428 11.3132 16.4688 11.3106V23.2812C16.4688 23.5398 16.2586 23.75 16 23.75C15.7414 23.75 15.5312 23.5398 15.5312 23.2812V21.9688C15.5312 21.71 15.3216 21.5 15.0625 21.5C14.8034 21.5 14.5938 21.71 14.5938 21.9688V22.6489C12.5591 23.0806 10.8525 24.4016 10.8525 25.6045C10.8525 26.3074 11.4451 26.9301 12.521 27.3581C13.4602 27.7319 14.699 27.9375 16.0088 27.9375C17.3186 27.9375 18.5571 27.7319 19.4966 27.3581C20.5725 26.9302 21.1651 26.3074 21.1651 25.6045C21.1651 24.9954 20.7026 24.3093 19.8967 23.7224C19.1967 23.2126 18.3244 22.8369 17.4062 22.6453V11.2956C20.3737 11.2234 23.1834 10.9231 25.5586 10.4231C25.6802 10.3974 25.7867 10.3245 25.8546 10.2203C25.9224 10.1162 25.9462 9.98934 25.9206 9.86769C25.8949 9.74611 25.822 9.63969 25.718 9.57181C25.6139 9.50393 25.4871 9.48012 25.3655 9.50562C19.3694 10.7681 10.4441 10.6841 4.843 9.063C0.38425 7.77219 0.99 6.47144 0.9375 6.40137C3.31125 8.38406 9.81081 9.437 16 9.437C22.1892 9.437 28.6888 8.38406 31.0625 6.40137V6.59375C31.0625 6.90256 30.7883 7.99094 27.2598 9.03269C27.2007 9.0501 27.1457 9.07899 27.0978 9.11768C27.0499 9.15638 27.0102 9.20414 26.9807 9.25822C26.9513 9.3123 26.9329 9.37165 26.9264 9.43287C26.92 9.49408 26.9256 9.55598 26.9431 9.615C27.0166 9.8645 27.2781 10.0049 27.5254 9.93163C30.4526 9.06763 32 7.91331 32 6.59375V4.7185ZM20.2275 25.6045C20.2275 26.1733 18.584 27 16.0088 27C13.4334 27 11.79 26.1733 11.79 25.6045C11.79 25.1026 12.8806 24.0169 14.6304 23.6008C14.7754 24.2229 15.3345 24.6875 16 24.6875C16.667 24.6875 17.2268 24.2209 17.3706 23.5969C19.1304 24.01 20.2275 25.0994 20.2275 25.6045Z" fill="black"/>
</svg>
