<svg width="32" height="32" viewBox="0 0 32 32" fill="none" xmlns="http://www.w3.org/2000/svg">
<path d="M21.9086 24.7242C21.7142 24.5236 21.588 24.7528 21.588 25.0107C21.588 25.2162 21.6696 25.4132 21.8148 25.5584C21.9601 25.7037 22.1571 25.7853 22.3625 25.7853C24.2113 25.7853 25.9843 25.0508 27.2916 23.7436C28.5989 22.4363 29.3333 20.6632 29.3333 18.8144V14.9418C29.3333 14.3255 29.0885 13.7345 28.6527 13.2987C28.217 12.863 27.626 12.6182 27.0097 12.6182H23.9116C23.7061 12.6182 23.5091 12.6998 23.3639 12.845C23.2186 12.9903 23.137 13.1873 23.137 13.3927C23.137 13.5981 23.2186 13.7951 23.3639 13.9404C23.5091 14.0856 23.7061 14.1672 23.9116 14.1672H27.0097C27.2151 14.1672 27.4121 14.2488 27.5574 14.3941C27.7026 14.5393 27.7842 14.7364 27.7842 14.9418V18.8144C27.7843 19.5265 27.6442 20.2315 27.3717 20.8894C27.0993 21.5472 26.6999 22.145 26.1965 22.6484C25.693 23.1519 25.0953 23.5513 24.4374 23.8237C23.7796 24.0961 23.0745 24.2363 22.3625 24.2362C21.976 24.2362 21.8792 24.4531 21.9086 24.7242Z" fill="black"/>
<path d="M4.54818 14.9426H23.137C23.5646 14.9426 23.9131 14.5956 23.9131 14.1681C23.9131 13.7405 23.5646 13.3936 23.137 13.3936H4.54818C4.12064 13.3936 3.77209 13.7405 3.77209 14.1681C3.77209 14.5956 4.12064 14.9426 4.54818 14.9426Z" fill="black"/>
<path d="M24.6784 11.1658C24.6921 11.0569 24.6825 10.9463 24.6503 10.8414C24.618 10.7365 24.5639 10.6397 24.4914 10.5573C24.4189 10.4749 24.3297 10.4089 24.2297 10.3635C24.1298 10.3182 24.0213 10.2947 23.9116 10.2944H3.77364C3.66383 10.2946 3.5553 10.318 3.45525 10.3633C3.3552 10.4086 3.26592 10.4746 3.19334 10.557C3.12075 10.6394 3.06652 10.7363 3.03423 10.8412C3.00195 10.9462 2.99235 11.0568 3.00607 11.1658C3.00607 11.1658 4.0455 19.4975 4.73406 25.0052C4.92154 26.5039 5.64999 27.8825 6.78247 28.882C7.91495 29.8814 9.37347 30.4327 10.8839 30.4324H16.8013C18.3116 30.4323 19.7698 29.8807 20.902 28.8812C22.0342 27.8816 22.7623 26.503 22.9496 25.0044C23.6389 19.4967 24.6791 11.165 24.6791 11.165L24.6784 11.1658ZM23.034 11.8435L21.4137 24.8123C21.2732 25.9365 20.7269 26.9706 19.8776 27.7203C19.0282 28.4699 17.9342 28.8835 16.8013 28.8833H10.8839C9.7511 28.8836 8.65723 28.4701 7.80788 27.7206C6.95852 26.971 6.41217 25.9371 6.27152 24.8131L4.65119 11.8443H23.0332L23.034 11.8435ZM13.0681 1.77454V8.74536C13.0681 8.95078 13.1497 9.14778 13.2949 9.29304C13.4402 9.43829 13.6372 9.51989 13.8426 9.51989C14.048 9.51989 14.245 9.43829 14.3903 9.29304C14.5355 9.14778 14.6171 8.95078 14.6171 8.74536V1.77454C14.6171 1.56912 14.5355 1.37211 14.3903 1.22686C14.245 1.0816 14.048 1 13.8426 1C13.6372 1 13.4402 1.0816 13.2949 1.22686C13.1497 1.37211 13.0681 1.56912 13.0681 1.77454ZM17.7153 5.64721V8.74536C17.7153 8.95078 17.7969 9.14778 17.9421 9.29304C18.0874 9.43829 18.2844 9.51989 18.4898 9.51989C18.6952 9.51989 18.8922 9.43829 19.0375 9.29304C19.1828 9.14778 19.2644 8.95078 19.2644 8.74536V5.64721C19.2644 5.44179 19.1828 5.24479 19.0375 5.09953C18.8922 4.95428 18.6952 4.87268 18.4898 4.87268C18.2844 4.87268 18.0874 4.95428 17.9421 5.09953C17.7969 5.24479 17.7153 5.44179 17.7153 5.64721ZM8.42085 4.09814V8.74536C8.42085 8.95078 8.50246 9.14778 8.64771 9.29304C8.79296 9.43829 8.98997 9.51989 9.19539 9.51989C9.40081 9.51989 9.59781 9.43829 9.74307 9.29304C9.88832 9.14778 9.96992 8.95078 9.96992 8.74536V4.09814C9.96992 3.89272 9.88832 3.69572 9.74307 3.55046C9.59781 3.40521 9.40081 3.32361 9.19539 3.32361C8.98997 3.32361 8.79296 3.40521 8.64771 3.55046C8.50246 3.69572 8.42085 3.89272 8.42085 4.09814Z" fill="black"/>
</svg>
