<svg width="512" height="512" viewBox="0 0 512 512" fill="none" xmlns="http://www.w3.org/2000/svg">
<path d="M288 352H304V512H288V352ZM248 400H264V512H248V400ZM256 200C243.274 199.987 231.072 194.926 222.073 185.927C213.074 176.928 208.013 164.726 208 152V144C208 131.27 213.057 119.061 222.059 110.059C231.061 101.057 243.27 96 256 96C268.73 96 280.939 101.057 289.941 110.059C298.943 119.061 304 131.27 304 144V152C303.987 164.726 298.926 176.928 289.927 185.927C280.928 194.926 268.726 199.987 256 200ZM256 112C247.513 112 239.374 115.371 233.373 121.373C227.371 127.374 224 135.513 224 144V152C224 160.487 227.371 168.626 233.373 174.627C239.374 180.629 247.513 184 256 184C264.487 184 272.626 180.629 278.627 174.627C284.629 168.626 288 160.487 288 152V144C288 135.513 284.629 127.374 278.627 121.373C272.626 115.371 264.487 112 256 112Z" fill="black"/>
<path d="M316 384C308.574 384 301.452 381.05 296.201 375.799C290.95 370.548 288 363.426 288 356V280H304V356C304 359.183 305.264 362.235 307.515 364.485C309.765 366.736 312.817 368 316 368C319.183 368 322.235 366.736 324.485 364.485C326.736 362.235 328 359.183 328 356V248C328 241.635 325.471 235.53 320.971 231.029C316.47 226.529 310.365 224 304 224H208C201.635 224 195.53 226.529 191.029 231.029C186.529 235.53 184 241.635 184 248V356C184 359.183 185.264 362.235 187.515 364.485C189.765 366.736 192.817 368 196 368C199.183 368 202.235 366.736 204.485 364.485C206.736 362.235 208 359.183 208 356V280H224V356C224 363.426 221.05 370.548 215.799 375.799C210.548 381.05 203.426 384 196 384C188.574 384 181.452 381.05 176.201 375.799C170.95 370.548 168 363.426 168 356V248C168.013 237.395 172.231 227.228 179.73 219.73C187.228 212.231 197.395 208.013 208 208H304C314.605 208.013 324.772 212.231 332.27 219.73C339.769 227.228 343.987 237.395 344 248V356C344 363.426 341.05 370.548 335.799 375.799C330.548 381.05 323.426 384 316 384Z" fill="black"/>
<path d="M208 352H224V512H208V352ZM440 328H456V488H440V328ZM400 376H416V488H400V376ZM408 176C395.274 175.987 383.072 170.926 374.073 161.927C365.074 152.928 360.013 140.726 360 128V120C360 107.27 365.057 95.0606 374.059 86.0589C383.061 77.0571 395.27 72 408 72C420.73 72 432.939 77.0571 441.941 86.0589C450.943 95.0606 456 107.27 456 120V128C455.987 140.726 450.926 152.928 441.927 161.927C432.928 170.926 420.726 175.987 408 176ZM408 88C399.513 88 391.374 91.3714 385.373 97.3726C379.371 103.374 376 111.513 376 120V128C376 136.487 379.371 144.626 385.373 150.627C391.374 156.629 399.513 160 408 160C416.487 160 424.626 156.629 430.627 150.627C436.629 144.626 440 136.487 440 128V120C440 111.513 436.629 103.374 430.627 97.3726C424.626 91.3714 416.487 88 408 88Z" fill="black"/>
<path d="M468 360C460.574 360 453.452 357.05 448.201 351.799C442.95 346.548 440 339.426 440 332V256H456V332C456 335.183 457.264 338.235 459.515 340.485C461.765 342.736 464.817 344 468 344C471.183 344 474.235 342.736 476.485 340.485C478.736 338.235 480 335.183 480 332V224C480 217.635 477.471 211.53 472.971 207.029C468.47 202.529 462.365 200 456 200H360C354.157 199.994 348.513 202.129 344.136 206L333.536 194C340.845 187.554 350.255 183.998 360 184H456C466.605 184.013 476.772 188.231 484.27 195.73C491.769 203.228 495.987 213.395 496 224V332C496 339.426 493.05 346.548 487.799 351.799C482.548 357.05 475.426 360 468 360ZM360 256H376V488H360V256ZM96 376H112V488H96V376ZM104 176C91.2735 175.987 79.0719 170.926 70.0729 161.927C61.0739 152.928 56.0127 140.726 56 128V120C56 107.27 61.0571 95.0606 70.0589 86.0589C79.0606 77.0571 91.2696 72 104 72C116.73 72 128.939 77.0571 137.941 86.0589C146.943 95.0606 152 107.27 152 120V128C151.987 140.726 146.926 152.928 137.927 161.927C128.928 170.926 116.726 175.987 104 176ZM104 88C95.5131 88 87.3737 91.3714 81.3726 97.3726C75.3714 103.374 72 111.513 72 120V128C72 136.487 75.3714 144.626 81.3726 150.627C87.3737 156.629 95.5131 160 104 160C112.487 160 120.626 156.629 126.627 150.627C132.629 144.626 136 136.487 136 128V120C136 111.513 132.629 103.374 126.627 97.3726C120.626 91.3714 112.487 88 104 88ZM192 104C179.274 103.987 167.072 98.9261 158.073 89.9271C149.074 80.9281 144.013 68.7265 144 56V48C144 35.2696 149.057 23.0606 158.059 14.0589C167.061 5.05713 179.27 0 192 0C204.73 0 216.939 5.05713 225.941 14.0589C234.943 23.0606 240 35.2696 240 48V56C239.987 68.7265 234.926 80.9281 225.927 89.9271C216.928 98.9261 204.726 103.987 192 104ZM192 16C183.513 16 175.374 19.3714 169.373 25.3726C163.371 31.3737 160 39.5131 160 48V56C160 64.4869 163.371 72.6263 169.373 78.6274C175.374 84.6286 183.513 88 192 88C200.487 88 208.626 84.6286 214.627 78.6274C220.629 72.6263 224 64.4869 224 56V48C224 39.5131 220.629 31.3737 214.627 25.3726C208.626 19.3714 200.487 16 192 16ZM320 104C307.274 103.987 295.072 98.9261 286.073 89.9271C277.074 80.9281 272.013 68.7265 272 56V48C272 35.2696 277.057 23.0606 286.059 14.0589C295.061 5.05713 307.27 0 320 0C332.73 0 344.939 5.05713 353.941 14.0589C362.943 23.0606 368 35.2696 368 48V56C367.987 68.7265 362.926 80.9281 353.927 89.9271C344.928 98.9261 332.726 103.987 320 104ZM320 16C311.513 16 303.374 19.3714 297.373 25.3726C291.371 31.3737 288 39.5131 288 48V56C288 64.4869 291.371 72.6263 297.373 78.6274C303.374 84.6286 311.513 88 320 88C328.487 88 336.626 84.6286 342.627 78.6274C348.629 72.6263 352 64.4869 352 56V48C352 39.5131 348.629 31.3737 342.627 25.3726C336.626 19.3714 328.487 16 320 16ZM44 360C36.5739 360 29.452 357.05 24.201 351.799C18.95 346.548 16 339.426 16 332V224C16.0127 213.395 20.2311 203.228 27.7298 195.73C35.2285 188.231 45.3952 184.013 56 184H152C161.745 183.998 171.155 187.554 178.464 194L167.864 206C163.487 202.129 157.843 199.994 152 200H56C49.6348 200 43.5303 202.529 39.0294 207.029C34.5286 211.53 32 217.635 32 224V332C32 335.183 33.2643 338.235 35.5147 340.485C37.7652 342.736 40.8174 344 44 344C47.1826 344 50.2348 342.736 52.4853 340.485C54.7357 338.235 56 335.183 56 332V256H72V332C72 339.426 69.05 346.548 63.799 351.799C58.548 357.05 51.4261 360 44 360Z" fill="black"/>
<path d="M56 328H72V488H56V328ZM136 256H152V488H136V256Z" fill="black"/>
</svg>
