<svg width="512" height="512" viewBox="0 0 512 512" fill="none" xmlns="http://www.w3.org/2000/svg">
<path d="M480.452 168.338H463.904V79.6455C463.904 53.4095 442.559 32.0645 416.323 32.0645H95.677C69.441 32.0645 48.096 53.4095 48.096 79.6455V168.338H31.548C14.152 168.338 0 182.49 0 199.886V344.177C0 363.428 13.824 379.503 32.064 383.019V472.435C32.064 474.425 32.8542 476.332 34.2607 477.739C35.6672 479.145 37.5749 479.935 39.564 479.935H55.596C57.2686 479.935 58.8932 479.376 60.2116 478.347C61.5299 477.318 62.4663 475.877 62.872 474.254L85.5 383.741H426.499L449.127 474.254C449.533 475.877 450.469 477.318 451.787 478.347C453.106 479.376 454.73 479.935 456.403 479.935H472.435C474.424 479.935 476.332 479.145 477.738 477.739C479.145 476.332 479.935 474.425 479.935 472.435V383.019C498.175 379.503 511.999 363.428 511.999 344.177V199.886C512 182.49 497.848 168.338 480.452 168.338ZM49.741 464.935H47.065V383.742H70.04L49.741 464.935ZM464.936 464.935H462.26L441.961 383.742H464.936V464.935ZM472.436 368.741H39.564C26.02 368.741 15 357.722 15 344.177V199.886C15 190.761 22.423 183.338 31.548 183.338H47.58C56.705 183.338 64.128 190.761 64.128 199.886V296.079C64.128 309.055 74.685 319.611 87.66 319.611H376.24C378.229 319.611 380.137 318.821 381.543 317.415C382.95 316.008 383.74 314.101 383.74 312.111C383.74 310.122 382.95 308.215 381.543 306.808C380.137 305.402 378.229 304.611 376.24 304.611H87.661C82.956 304.611 79.129 300.783 79.129 296.079V255.482H95.682C97.6711 255.482 99.5788 254.692 100.985 253.286C102.392 251.879 103.182 249.972 103.182 247.982C103.182 245.993 102.392 244.086 100.985 242.679C99.5788 241.273 97.6711 240.482 95.682 240.482H79.129V199.885C79.129 188.127 72.659 177.858 63.097 172.432V79.6455C63.097 61.6805 77.713 47.0645 95.678 47.0645H416.324C434.289 47.0645 448.905 61.6805 448.905 79.6455V172.434C439.343 177.86 432.873 188.129 432.873 199.887V240.484H127.742C125.753 240.484 123.845 241.275 122.439 242.681C121.032 244.088 120.242 245.995 120.242 247.984C120.242 249.974 121.032 251.881 122.439 253.288C123.845 254.694 125.753 255.484 127.742 255.484H432.871V296.081C432.871 300.786 429.043 304.613 424.339 304.613H408.305C406.316 304.613 404.408 305.404 403.002 306.81C401.595 308.217 400.805 310.124 400.805 312.113C400.805 314.103 401.595 316.01 403.002 317.417C404.408 318.823 406.316 319.613 408.305 319.613H424.339C437.315 319.613 447.871 309.057 447.871 296.081V199.888C447.871 190.763 455.294 183.34 464.419 183.34H480.451C489.576 183.34 496.999 190.763 496.999 199.888V344.177H497C497 357.722 485.98 368.741 472.436 368.741Z" fill="black"/>
</svg>
