<svg width="630" height="630" viewBox="0 0 630 630" fill="none" xmlns="http://www.w3.org/2000/svg">
<g clip-path="url(#clip0_15_60)">
<path d="M315 630C488.97 630 630 488.97 630 315C630 141.03 488.97 0 315 0C141.03 0 0 141.03 0 315C0 488.97 141.03 630 315 630Z" fill="url(#paint0_linear_15_60)"/>
<path d="M405.233 511.875H224.767C165.966 511.875 118.125 464.039 118.125 405.233V224.767C118.125 165.961 165.966 118.125 224.767 118.125H405.233C464.039 118.125 511.875 165.961 511.875 224.767V405.238C511.875 464.039 464.039 511.875 405.233 511.875ZM224.767 150.939C184.058 150.939 150.939 184.058 150.939 224.767V405.238C150.939 445.946 184.058 479.066 224.767 479.066H405.233C445.942 479.066 479.061 445.946 479.061 405.238V224.767C479.061 184.058 445.942 150.939 405.233 150.939H224.767Z" fill="white"/>
<path d="M315 413.438C260.722 413.438 216.562 369.274 216.562 315C216.562 260.717 260.722 216.562 315 216.562C369.278 216.562 413.438 260.717 413.438 315C413.438 369.274 369.278 413.438 315 413.438ZM315 249.377C278.814 249.377 249.377 278.814 249.377 315C249.377 351.191 278.814 380.623 315 380.623C351.186 380.623 380.623 351.191 380.623 315C380.623 278.814 351.191 249.377 315 249.377Z" fill="white"/>
<path d="M419.59 232.967C432.048 232.967 442.147 222.868 442.147 210.41C442.147 197.952 432.048 187.853 419.59 187.853C407.132 187.853 397.033 197.952 397.033 210.41C397.033 222.868 407.132 232.967 419.59 232.967Z" fill="white"/>
</g>
<defs>
<linearGradient id="paint0_linear_15_60" x1="134.311" y1="573.057" x2="495.694" y2="56.9481" gradientUnits="userSpaceOnUse">
<stop stop-color="#FFB900"/>
<stop offset="1" stop-color="#9100EB"/>
</linearGradient>
<clipPath id="clip0_15_60">
<rect width="630" height="630" fill="white"/>
</clipPath>
</defs>
</svg>
