<svg width="630" height="630" viewBox="0 0 630 630" fill="none" xmlns="http://www.w3.org/2000/svg">
<g clip-path="url(#clip0_15_55)">
<path d="M315 0C141.012 0 0 141.012 0 315C0 488.988 141.012 630 315 630C488.988 630 630 488.988 630 315C630 141.012 488.988 0 315 0ZM315 157.5C363.936 157.5 403.594 197.17 403.594 246.094C403.594 295.017 363.973 334.688 315 334.688C266.077 334.688 226.406 295.017 226.406 246.094C226.406 197.17 266.027 157.5 315 157.5ZM315 551.25C249.871 551.25 190.846 524.758 148.025 481.987C167.959 430.541 217.178 393.75 275.625 393.75H354.375C412.871 393.75 462.09 430.516 481.975 481.987C439.154 524.795 380.092 551.25 315 551.25Z" fill="black"/>
</g>
<defs>
<clipPath id="clip0_15_55">
<rect width="630" height="630" fill="white"/>
</clipPath>
</defs>
</svg>
