<svg width="512" height="512" viewBox="0 0 512 512" fill="none" xmlns="http://www.w3.org/2000/svg">
<path d="M476 240H304V228C303.99 221.27 301.561 214.768 297.155 209.681C292.749 204.593 286.66 201.26 280 200.29V160H312C314.122 160 316.157 159.157 317.657 157.657C319.157 156.157 320 154.122 320 152V128H336C338.122 128 340.157 127.157 341.657 125.657C343.157 124.157 344 122.122 344 120V96H384C386.122 96 388.157 95.1571 389.657 93.6569C391.157 92.1566 392 90.1217 392 88C392 85.8783 391.157 83.8434 389.657 82.3431C388.157 80.8429 386.122 80 384 80H96C93.8783 80 91.8434 80.8429 90.3431 82.3431C88.8429 83.8434 88 85.8783 88 88C88 90.1217 88.8429 92.1566 90.3431 93.6569C91.8434 95.1571 93.8783 96 96 96H168V120C168 122.122 168.843 124.157 170.343 125.657C171.843 127.157 173.878 128 176 128H192V152C192 154.122 192.843 156.157 194.343 157.657C195.843 159.157 197.878 160 200 160H232V200.29C225.34 201.26 219.252 204.593 214.845 209.681C210.439 214.768 208.01 221.27 208 228V240H189C173.293 229.566 154.856 224 136 224C117.144 224 98.7065 229.566 83 240H36C28.5765 240.008 21.4593 242.961 16.2101 248.21C10.9608 253.459 8.00821 260.576 8 268V372C8.00821 379.424 10.9608 386.541 16.2101 391.79C21.4593 397.039 28.5765 399.992 36 400H40V412C40.0082 419.424 42.9608 426.541 48.2101 431.79C53.4593 437.039 60.5765 439.992 68 440H444C451.424 439.992 458.541 437.039 463.79 431.79C469.039 426.541 471.992 419.424 472 412V400H476C483.424 399.992 490.541 397.039 495.79 391.79C501.039 386.541 503.992 379.424 504 372V268C503.992 260.576 501.039 253.459 495.79 248.21C490.541 242.961 483.424 240.008 476 240ZM184 112V96H328V112H184ZM208 144V128H304V144H208ZM264 160V200H248V160H264ZM224 228C224.003 224.818 225.268 221.768 227.518 219.518C229.768 217.268 232.818 216.003 236 216H276C279.182 216.003 282.232 217.268 284.482 219.518C286.732 221.768 287.997 224.818 288 228V240H224V228ZM136 240C151.823 240 167.29 244.692 180.446 253.482C193.602 262.273 203.855 274.767 209.91 289.385C215.965 304.003 217.55 320.089 214.463 335.607C211.376 351.126 203.757 365.38 192.569 376.569C181.38 387.757 167.126 395.376 151.607 398.463C136.089 401.55 120.003 399.965 105.385 393.91C90.7672 387.855 78.2729 377.602 69.4824 364.446C60.6919 351.29 56 335.823 56 320C56.0246 298.79 64.4611 278.456 79.4586 263.459C94.4562 248.461 114.79 240.025 136 240ZM36 384C32.8182 383.997 29.7675 382.732 27.5176 380.482C25.2678 378.232 24.0026 375.182 24 372V268C24.0026 264.818 25.2678 261.768 27.5176 259.518C29.7675 257.268 32.8182 256.003 36 256H64.51C48.7289 273.582 40.0001 296.374 40.0001 320C40.0001 343.626 48.7289 366.418 64.51 384H36ZM456 412C455.997 415.182 454.732 418.232 452.482 420.482C450.232 422.732 447.182 423.997 444 424H68C64.8182 423.997 61.7675 422.732 59.5176 420.482C57.2678 418.232 56.0026 415.182 56 412V400H83C98.7065 410.434 117.144 416 136 416C154.856 416 173.293 410.434 189 400H456V412ZM488 372C487.997 375.182 486.732 378.232 484.482 380.482C482.232 382.732 479.182 383.997 476 384H207.49C223.271 366.418 232 343.626 232 320C232 296.374 223.271 273.582 207.49 256H476C479.182 256.003 482.232 257.268 484.482 259.518C486.732 261.768 487.997 264.818 488 268V372Z" fill="black"/>
<path d="M136 384C148.658 384 161.032 380.246 171.556 373.214C182.081 366.182 190.284 356.186 195.128 344.492C199.972 332.797 201.24 319.929 198.77 307.514C196.301 295.099 190.205 283.696 181.255 274.745C172.304 265.795 160.901 259.699 148.486 257.23C136.071 254.76 123.203 256.028 111.508 260.872C99.8138 265.716 89.8184 273.919 82.7859 284.444C75.7535 294.968 72 307.342 72 320C72.0191 336.968 78.768 353.236 90.7662 365.234C102.764 377.232 119.032 383.981 136 384ZM136 272C145.494 272 154.774 274.815 162.667 280.089C170.561 285.364 176.713 292.86 180.346 301.631C183.979 310.402 184.93 320.053 183.078 329.364C181.226 338.675 176.654 347.228 169.941 353.941C163.228 360.654 154.675 365.226 145.364 367.078C136.053 368.93 126.402 367.979 117.631 364.346C108.86 360.713 101.364 354.561 96.0895 346.667C90.8152 338.774 88 329.494 88 320C88.0143 307.274 93.076 295.073 102.075 286.075C111.073 277.076 123.274 272.014 136 272ZM464 280H416C413.878 280 411.843 280.843 410.343 282.343C408.843 283.843 408 285.878 408 288V352C408 354.122 408.843 356.157 410.343 357.657C411.843 359.157 413.878 360 416 360H464C466.122 360 468.157 359.157 469.657 357.657C471.157 356.157 472 354.122 472 352V288C472 285.878 471.157 283.843 469.657 282.343C468.157 280.843 466.122 280 464 280ZM456 344H424V296H456V344ZM392 280H312C309.878 280 307.843 280.843 306.343 282.343C304.843 283.843 304 285.878 304 288C304 290.122 304.843 292.157 306.343 293.657C307.843 295.157 309.878 296 312 296H392C394.122 296 396.157 295.157 397.657 293.657C399.157 292.157 400 290.122 400 288C400 285.878 399.157 283.843 397.657 282.343C396.157 280.843 394.122 280 392 280ZM392 312H312C309.878 312 307.843 312.843 306.343 314.343C304.843 315.843 304 317.878 304 320C304 322.122 304.843 324.157 306.343 325.657C307.843 327.157 309.878 328 312 328H392C394.122 328 396.157 327.157 397.657 325.657C399.157 324.157 400 322.122 400 320C400 317.878 399.157 315.843 397.657 314.343C396.157 312.843 394.122 312 392 312ZM392 344H312C309.878 344 307.843 344.843 306.343 346.343C304.843 347.843 304 349.878 304 352C304 354.122 304.843 356.157 306.343 357.657C307.843 359.157 309.878 360 312 360H392C394.122 360 396.157 359.157 397.657 357.657C399.157 356.157 400 354.122 400 352C400 349.878 399.157 347.843 397.657 346.343C396.157 344.843 394.122 344 392 344ZM408 96H416C418.122 96 420.157 95.1571 421.657 93.6569C423.157 92.1566 424 90.1217 424 88C424 85.8783 423.157 83.8434 421.657 82.3431C420.157 80.8429 418.122 80 416 80H408C405.878 80 403.843 80.8429 402.343 82.3431C400.843 83.8434 400 85.8783 400 88C400 90.1217 400.843 92.1566 402.343 93.6569C403.843 95.1571 405.878 96 408 96Z" fill="black"/>
</svg>
