<svg width="512" height="512" viewBox="0 0 512 512" fill="none" xmlns="http://www.w3.org/2000/svg">
<path d="M212.05 299.951C210.13 298.031 207.526 296.953 204.81 296.953C202.095 296.953 199.491 298.031 197.571 299.951L133.12 364.401V307.201C133.12 304.485 132.041 301.88 130.121 299.96C128.2 298.039 125.596 296.961 122.88 296.961C120.164 296.961 117.56 298.039 115.639 299.96C113.719 301.88 112.64 304.485 112.64 307.201V389.121C112.64 391.836 113.719 394.441 115.639 396.361C117.56 398.282 120.164 399.361 122.88 399.361H204.8C207.516 399.361 210.12 398.282 212.041 396.361C213.961 394.441 215.04 391.836 215.04 389.121C215.04 386.405 213.961 383.8 212.041 381.88C210.12 379.959 207.516 378.881 204.8 378.881H147.599L212.029 314.451C212.984 313.501 213.743 312.372 214.261 311.128C214.779 309.885 215.046 308.552 215.048 307.205C215.05 305.858 214.786 304.524 214.272 303.279C213.757 302.034 213.002 300.903 212.05 299.951ZM393.032 113.419C391.788 112.917 390.461 112.653 389.12 112.641H307.2C304.484 112.641 301.88 113.719 299.959 115.64C298.039 117.56 296.96 120.165 296.96 122.881C296.96 125.596 298.039 128.201 299.959 130.121C301.88 132.042 304.484 133.121 307.2 133.121H364.401L299.971 197.551C299.019 198.501 298.263 199.63 297.747 200.873C297.231 202.116 296.966 203.448 296.965 204.793C296.963 207.511 298.04 210.118 299.96 212.04C301.88 213.963 304.486 215.044 307.203 215.046C309.92 215.048 312.527 213.971 314.45 212.051L378.88 147.6V204.801C378.88 207.516 379.959 210.121 381.879 212.041C383.8 213.962 386.404 215.041 389.12 215.041C391.836 215.041 394.44 213.962 396.361 212.041C398.281 210.121 399.36 207.516 399.36 204.801V122.881C399.357 120.855 398.754 118.875 397.628 117.192C396.502 115.508 394.903 114.195 393.032 113.419Z" fill="black"/>
<path d="M409.6 51.2002H102.4C88.8259 51.2165 75.8124 56.6159 66.2141 66.2143C56.6158 75.8126 51.2163 88.8261 51.2 102.4V409.6C51.2 437.842 74.1786 460.8 102.4 460.8H409.6C437.821 460.8 460.8 437.842 460.8 409.6V102.4C460.8 74.1583 437.821 51.2002 409.6 51.2002ZM440.32 409.6C440.32 426.537 426.537 440.32 409.6 440.32H102.4C85.4631 440.32 71.68 426.537 71.68 409.6V102.4C71.68 85.4632 85.4631 71.6802 102.4 71.6802H409.6C426.537 71.6802 440.32 85.4632 440.32 102.4V409.6Z" fill="black"/>
</svg>
