<svg width="512" height="512" viewBox="0 0 512 512" fill="none" xmlns="http://www.w3.org/2000/svg">
<path d="M471 111H211C203.072 110.991 195.321 113.353 188.745 117.781C183.273 102.203 168.424 91 151 91H41C18.944 91 1 108.944 1 131V221C1 226.522 5.478 231 11 231H71V321H61C55.478 321 51 325.478 51 331V361H41C18.944 361 1 378.944 1 401V411C1 416.522 5.478 421 11 421H501C506.522 421 511 416.522 511 411V401C511 378.944 493.056 361 471 361H461V331C461 325.478 456.522 321 451 321H441V231H501C506.522 231 511 226.522 511 221V151C511 128.944 493.056 111 471 111ZM211 131H471C482.028 131 491 139.972 491 151V171H191V151C191 139.972 199.972 131 211 131ZM21 131C21 119.972 29.972 111 41 111H151C162.028 111 171 119.972 171 131V171H21V131ZM91 231H111V321H91V231ZM381 231V321H371C365.478 321 361 325.478 361 331V361H151V331C151 325.478 146.522 321 141 321H131V231H381ZM71 341H131V361H71V341ZM491 401H21C21 389.972 29.972 381 41 381H471C482.028 381 491 389.972 491 401ZM381 361V341H441V361H381ZM421 321H401V231H421V321ZM491 211H21V191H491V211Z" fill="black"/>
</svg>
