<svg width="630" height="630" viewBox="0 0 630 630" fill="none" xmlns="http://www.w3.org/2000/svg">
<g clip-path="url(#clip0_15_48)">
<path d="M315 630C488.97 630 630 488.97 630 315C630 141.03 488.97 0 315 0C141.03 0 0 141.03 0 315C0 488.97 141.03 630 315 630Z" fill="url(#paint0_linear_15_48)"/>
<path d="M142.602 311.671C234.421 271.653 295.651 245.238 326.292 232.426C413.779 196.053 431.966 189.713 443.813 189.515C448.163 189.419 452.433 190.694 456.017 193.16C458.523 195.34 460.12 198.379 460.494 201.679C461.129 205.781 461.302 209.941 461.009 214.081C456.255 263.887 435.77 384.775 425.349 440.564C420.951 464.338 412.234 472.262 403.834 472.856C385.528 474.521 371.66 460.772 353.949 449.083C326.213 430.896 310.562 419.603 283.658 401.853C252.555 381.368 272.723 370.155 290.434 351.69C295.07 346.856 375.662 273.554 377.247 266.898C377.456 265.917 377.433 264.9 377.178 263.93C376.924 262.96 376.445 262.063 375.781 261.311C374.818 260.698 373.724 260.322 372.588 260.211C371.452 260.101 370.306 260.261 369.243 260.677C366.47 261.311 322.185 290.579 236.389 348.481C223.815 357.119 212.43 361.319 202.234 361.081C190.981 360.843 169.347 354.741 153.26 349.511C133.449 343.092 117.838 339.724 119.225 328.828C119.885 323.334 127.677 317.615 142.602 311.671Z" fill="white"/>
</g>
<defs>
<linearGradient id="paint0_linear_15_48" x1="311.038" y1="-5.9434" x2="311.038" y2="628.019" gradientUnits="userSpaceOnUse">
<stop stop-color="#2AABEE"/>
<stop offset="1" stop-color="#229ED9"/>
</linearGradient>
<clipPath id="clip0_15_48">
<rect width="630" height="630" fill="white"/>
</clipPath>
</defs>
</svg>
