<svg width="26" height="26" viewBox="0 0 26 26" fill="none" xmlns="http://www.w3.org/2000/svg">
<path d="M22.9948 9.63928C22.9597 9.6395 22.9246 9.63733 22.8897 9.63278L18.9583 9.12469C18.8499 9.11432 18.7447 9.08225 18.6489 9.0304C18.5531 8.97855 18.4688 8.90797 18.4008 8.82287C18.3329 8.73776 18.2827 8.63986 18.2533 8.53498C18.224 8.43011 18.216 8.3204 18.2299 8.21238C18.2437 8.10436 18.2792 8.00023 18.3341 7.90618C18.389 7.81213 18.4623 7.73008 18.5495 7.66491C18.6368 7.59974 18.7363 7.55278 18.842 7.52681C18.9478 7.50085 19.0577 7.49642 19.1652 7.51378L22.3416 7.92328L23.0241 4.41328C23.0652 4.20152 23.1887 4.01476 23.3675 3.89408C23.5463 3.77341 23.7657 3.72869 23.9774 3.76978C24.1892 3.81086 24.3759 3.93439 24.4966 4.11317C24.6173 4.29195 24.662 4.51136 24.6209 4.72311L23.7911 8.98169C23.7552 9.16661 23.6561 9.33331 23.5109 9.45326C23.3656 9.57321 23.1832 9.63896 22.9948 9.63928ZM10.8561 24.4311C10.8015 24.4312 10.7471 24.4257 10.6936 24.4149C10.3173 24.3376 9.94174 24.2415 9.56691 24.1267C9.36549 24.0596 9.19836 23.9162 9.10127 23.7274C9.00419 23.5386 8.98487 23.3193 9.04745 23.1164C9.11002 22.9135 9.24953 22.7432 9.4361 22.6419C9.62268 22.5406 9.8415 22.5163 10.0457 22.5743C10.3686 22.6739 10.6936 22.7563 11.0175 22.8224C11.2148 22.8624 11.3902 22.9743 11.5097 23.1363C11.6292 23.2983 11.6843 23.4989 11.6643 23.6992C11.6443 23.8995 11.5507 24.0853 11.4016 24.2205C11.2525 24.3557 11.0585 24.4308 10.8572 24.4311H10.8561ZM15.1591 24.4289C14.9576 24.4291 14.7632 24.3545 14.6137 24.2194C14.4641 24.0844 14.3701 23.8986 14.3499 23.6981C14.3296 23.4976 14.3846 23.2968 14.5041 23.1346C14.6236 22.9723 14.7991 22.8603 14.9966 22.8202C15.3252 22.753 15.6491 22.67 15.9683 22.571C16.173 22.5105 16.3933 22.5329 16.5816 22.6335C16.7699 22.7341 16.9111 22.9047 16.9746 23.1085C17.038 23.3124 17.0188 23.533 16.9209 23.7227C16.823 23.9124 16.6544 24.056 16.4515 24.1224C16.0807 24.238 15.7043 24.3349 15.3237 24.4127C15.2695 24.4236 15.2144 24.429 15.1591 24.4289ZM19.9832 22.0933C19.8165 22.0933 19.6538 22.0421 19.5172 21.9466C19.3806 21.8511 19.2767 21.7158 19.2196 21.5592C19.1624 21.4026 19.1549 21.2323 19.1979 21.0712C19.2408 20.9102 19.3323 20.7662 19.4599 20.6589C19.7157 20.444 19.9605 20.2162 20.1933 19.9764C20.344 19.8242 20.5486 19.7376 20.7628 19.7355C20.9769 19.7334 21.1833 19.8159 21.3369 19.9651C21.4905 20.1143 21.579 20.3181 21.5832 20.5323C21.5873 20.7464 21.5067 20.9535 21.359 21.1085C21.0867 21.388 20.8029 21.6524 20.5075 21.9015C20.3608 22.0254 20.1751 22.0933 19.9832 22.0933ZM23.0977 17.7318C22.9657 17.7317 22.8357 17.6995 22.719 17.6379C22.6022 17.5763 22.5022 17.4872 22.4277 17.3783C22.3531 17.2693 22.3062 17.1439 22.291 17.0128C22.2758 16.8816 22.2928 16.7488 22.3405 16.6257C22.4262 16.4052 22.5035 16.1815 22.5723 15.9551L22.6568 15.6691C22.7157 15.4618 22.8546 15.2864 23.0428 15.1815C23.231 15.0765 23.4532 15.0507 23.6605 15.1096C23.8678 15.1685 24.0432 15.3073 24.1482 15.4955C24.2531 15.6838 24.279 15.906 24.2201 16.1133L24.1269 16.4307C24.0457 16.695 23.9547 16.9561 23.8561 17.2129C23.7968 17.3658 23.6927 17.4972 23.5573 17.5898C23.422 17.6824 23.2617 17.7319 23.0977 17.7318Z" fill="black"/>
<path d="M11.6166 24.5559C11.5814 24.5562 11.5463 24.554 11.5115 24.5494C9.48426 24.2881 7.56154 23.4978 5.93654 22.2579C4.31155 21.0181 3.04153 19.3723 2.25413 17.4861C1.46673 15.5999 1.18969 13.5396 1.45086 11.5124C1.71202 9.48512 2.50219 7.56234 3.74194 5.93725C4.98169 4.31217 6.62736 3.04204 8.51354 2.25451C10.3997 1.46698 12.46 1.18979 14.4872 1.45081C16.5145 1.71183 18.4373 2.50186 20.0625 3.7415C21.6876 4.98114 22.9579 6.62671 23.7456 8.51284C23.7906 8.61185 23.8153 8.7189 23.8182 8.82764C23.8211 8.93637 23.8021 9.04458 23.7624 9.14585C23.7227 9.24711 23.663 9.33937 23.587 9.41715C23.5109 9.49494 23.4201 9.55666 23.3197 9.59867C23.2194 9.64067 23.1116 9.6621 23.0029 9.66169C22.8941 9.66128 22.7865 9.63903 22.6865 9.59626C22.5865 9.55349 22.4961 9.49108 22.4206 9.41272C22.3452 9.33436 22.2863 9.24165 22.2473 9.14009C21.5699 7.51665 20.4772 6.10011 19.0788 5.03288C17.6804 3.96565 16.0258 3.28532 14.2811 3.06028C12.5365 2.83525 10.7634 3.07343 9.13997 3.75089C7.51657 4.42835 6.1001 5.52121 5.03295 6.91964C3.9658 8.31806 3.28556 9.97275 3.06063 11.7174C2.83569 13.4621 3.07397 15.2352 3.75153 16.8585C4.42908 18.4819 5.52203 19.8983 6.92051 20.9654C8.319 22.0325 9.97373 22.7126 11.7184 22.9374C11.9233 22.9635 12.1105 23.0666 12.2421 23.2258C12.3737 23.385 12.4397 23.5883 12.4267 23.7944C12.4138 24.0006 12.3228 24.194 12.1723 24.3355C12.0218 24.4769 11.8231 24.5557 11.6166 24.5559Z" fill="black"/>
<path d="M17.3322 17.0622C17.1564 17.0624 16.9853 17.0054 16.8447 16.8997L12.5114 13.6497C12.4108 13.5738 12.3291 13.4756 12.2729 13.3628C12.2167 13.25 12.1875 13.1257 12.1875 12.9997V7.58301C12.1875 7.36752 12.2731 7.16086 12.4255 7.00848C12.5778 6.85611 12.7845 6.77051 13 6.77051C13.2155 6.77051 13.4222 6.85611 13.5745 7.00848C13.7269 7.16086 13.8125 7.36752 13.8125 7.58301V12.5934L17.8208 15.5997C17.9573 15.702 18.058 15.8446 18.1089 16.0074C18.1597 16.1702 18.1581 16.3448 18.1041 16.5066C18.0502 16.6684 17.9468 16.8091 17.8084 16.9088C17.6701 17.0085 17.5039 17.0622 17.3333 17.0622H17.3322Z" fill="black"/>
</svg>
