<svg width="630" height="665" viewBox="0 0 630 665" fill="none" xmlns="http://www.w3.org/2000/svg">
<g clip-path="url(#clip0_15_41)">
<path d="M558.885 64.7951C542.377 49.5632 475.667 1.1362 327.077 0.478276C327.077 0.478276 151.85 -10.0883 66.4302 68.2642C18.8803 115.824 2.15318 185.414 0.388758 271.692C-1.37567 357.969 -3.65848 519.658 152.199 563.5H152.349L152.249 630.399C152.249 630.399 151.252 657.483 169.086 663.005C190.658 669.704 203.318 649.119 223.913 626.929C235.217 614.748 250.828 596.854 262.591 583.178C369.184 592.149 451.165 571.644 460.475 568.614C481.997 561.636 603.783 546.035 623.59 384.356C644.036 217.712 613.701 112.305 558.885 64.7951Z" fill="white"/>
<path d="M524.224 98.4592C510.268 85.7792 450.028 47.9288 324.335 47.3805C324.335 47.3805 175.496 37.6014 103.244 103.045C63.0309 142.749 49.4837 201.793 47.9984 273.845C46.5131 345.898 38.8174 483.543 170.611 520.157C170.611 520.157 170.093 622.344 170.033 631.326C170.033 637.606 171.03 641.903 174.618 642.79C177.2 643.418 181.068 642.082 184.358 638.802C205.431 617.639 272.898 536.246 272.898 536.246C363.422 542.158 435.445 524.284 443.19 521.752C461.452 515.881 560.23 507.397 576.948 372.364C594.223 233.174 570.598 138.164 524.224 98.4592Z" fill="#7360F2"/>
<path d="M388.244 267.924C386.609 234.968 369.868 217.659 338.022 215.998" stroke="white" stroke-width="16.86" stroke-linecap="round" stroke-linejoin="round"/>
<path d="M431.358 282.378C432.022 251.675 422.927 226.023 404.074 205.421C385.134 184.747 358.916 173.363 325.273 170.9" stroke="white" stroke-width="16.86" stroke-linecap="round" stroke-linejoin="round"/>
<path d="M475.498 299.644C475.093 246.365 459.173 204.405 427.739 173.761C396.305 143.118 357.212 127.634 310.459 127.308" stroke="white" stroke-width="16.86" stroke-linecap="round" stroke-linejoin="round"/>
<path d="M339.687 380.478C339.687 380.478 351.5 381.475 357.86 373.64L370.26 358.039C376.242 350.304 390.676 345.369 404.811 353.244C415.404 359.285 425.688 365.853 435.624 372.922C445.004 379.82 464.214 395.85 464.273 395.85C473.425 403.575 475.538 414.92 469.308 426.882C469.308 426.951 469.258 427.071 469.258 427.131C462.396 439.027 453.684 449.754 443.449 458.911C443.33 458.97 443.33 459.03 443.22 459.09C434.328 466.52 425.592 470.743 417.013 471.76C415.75 471.981 414.466 472.061 413.185 471.999C409.402 472.036 405.637 471.457 402.04 470.285L401.761 469.876C388.543 466.148 366.472 456.817 329.719 436.541C308.45 424.946 288.201 411.57 269.19 396.557C259.661 389.037 250.571 380.976 241.966 372.414L241.049 371.497L240.131 370.58L239.214 369.662C238.905 369.363 238.606 369.054 238.297 368.745C229.735 360.14 221.674 351.05 214.154 341.521C199.143 322.512 185.767 302.267 174.17 281.002C153.894 244.239 144.563 222.188 140.835 208.95L140.426 208.671C139.258 205.073 138.682 201.309 138.722 197.526C138.652 196.246 138.729 194.961 138.951 193.698C140.021 185.132 144.251 176.39 151.641 167.471C151.701 167.361 151.761 167.361 151.82 167.242C160.975 157.007 171.702 148.298 183.6 141.443C183.66 141.443 183.779 141.383 183.849 141.383C195.811 135.153 207.156 137.266 214.871 146.368C214.931 146.428 230.931 165.637 237.799 175.017C244.869 184.963 251.436 195.257 257.477 205.86C265.352 219.985 260.417 234.45 252.682 240.411L237.081 252.812C229.206 259.171 230.243 270.984 230.243 270.984C230.243 270.984 253.35 358.438 339.687 380.478Z" fill="white"/>
</g>
<defs>
<clipPath id="clip0_15_41">
<rect width="630" height="664.332" fill="white"/>
</clipPath>
</defs>
</svg>
